<svg width="148" height="64" viewBox="0 0 148 64" fill="none" xmlns="http://www.w3.org/2000/svg">
<g clip-path="url(#clip0_1_354)">
<path d="M73.9282 3.37982C83.4117 3.37982 91.0991 11.0742 91.0991 20.5663C91.0991 30.0585 83.4117 37.7529 73.9282 37.7529C64.4448 37.7529 56.7574 30.0585 56.7574 20.5663C56.7574 11.0742 64.4448 3.37982 73.9282 3.37982ZM73.9282 1.76184C63.5826 1.76184 55.1409 10.1753 55.1409 20.5663C55.1409 30.9573 63.5467 39.3708 73.9282 39.3708C84.3098 39.3708 92.7156 30.9573 92.7156 20.5663C92.7156 10.1753 84.2739 1.76184 73.9282 1.76184Z" fill="#C19E00"/>
<path d="M82.9087 4.85392L82.8369 4.17078L77.2689 11.5056C77.3048 11.6854 77.3408 11.8652 77.3767 12.0449C77.5204 12.0449 77.6641 12.0449 77.7718 12.0449C79.2447 12.0449 80.466 11.5775 81.3281 10.6427C83.3039 8.6292 82.9087 5.0337 82.9087 4.85392Z" fill="#14AD00"/>
<path d="M77.5923 13.3033C77.6282 13.555 77.6641 13.8067 77.7001 14.0584C78.7059 14.3101 79.6758 14.4539 80.5738 14.4539C82.0107 14.4539 83.3039 14.1303 84.4175 13.4831C87.0399 11.937 87.7583 9.13254 87.7583 9.02468L87.902 8.48535L77.5923 13.3033Z" fill="#14AD00"/>
<path d="M89.4107 13.9146C84.0942 15.6764 77.9514 16.0719 77.9155 16.0719C77.9155 16.2517 77.9515 16.4674 77.9515 16.6472L78.0951 16.7191C79.9272 17.6539 81.6155 18.1213 83.232 18.1213C84.0223 18.1213 84.7767 18.0135 85.4951 17.7618C88.4049 16.8269 89.734 14.382 89.7699 14.2741L90.0573 13.6989L89.4107 13.9146Z" fill="#007A18"/>
<path d="M90.3806 17.618C84.5612 19.9191 78.0234 18.7326 77.9515 18.6966H77.8797C77.8797 18.8764 77.8438 19.0921 77.8438 19.2719C79.7836 20.9977 81.7952 21.8966 83.7709 21.8966C84.0224 21.8966 84.2738 21.8966 84.5253 21.8607C88.2612 21.4652 90.5962 18.1933 90.7039 18.0494L91.2428 17.2584L90.3806 17.618Z" fill="#14AD00"/>
<path d="M90.4524 23.4067C82.4058 24.3415 77.8437 21.7887 77.8077 21.7887L77.5204 21.6449C77.4844 21.8247 77.4485 21.9685 77.4126 22.1483L77.4485 22.1842C79.065 24.5573 81.0407 25.9236 83.3039 26.2471C83.6631 26.2831 83.9864 26.3191 84.3097 26.3191C87.7582 26.3191 90.5242 24.0179 90.6679 23.9101L91.3504 23.3348L90.4524 23.4067Z" fill="#14AD00"/>
<path d="M88.0457 29.3753C81.1486 29.5191 76.7301 24.9887 76.6942 24.9528L76.5505 24.809C76.4787 25.0247 76.3709 25.2045 76.2991 25.4202C77.1253 28.1887 78.5263 29.9865 80.502 30.8135C81.3282 31.173 82.2263 31.2809 83.0525 31.2809C85.7107 31.2809 88.0457 29.9505 88.1894 29.8786L89.0874 29.3393L88.0457 29.3753Z" fill="#007A18"/>
<path d="M84.0942 33.654C80.2864 33.1865 75.7962 28.5843 75.0418 27.7573C74.8981 27.9731 74.7544 28.1888 74.6107 28.4045C75.3651 31.245 76.6583 33.1506 78.5263 34.0854C79.4962 34.5528 80.4661 34.7326 81.3282 34.7326C82.9088 34.7326 84.0942 34.1933 84.202 34.1573L85.1 33.7618L84.0942 33.654Z" fill="#14AD00"/>
<path d="M77.8078 36.9618C75.1855 35.5595 73.0301 30.9213 72.9942 30.8494L72.8505 30.5618C72.7068 30.7056 72.5991 30.8494 72.4554 30.9573C72.2758 33.3663 72.7787 35.164 73.9641 36.2786C75.0418 37.2854 76.4068 37.4651 77.1612 37.4651C77.4845 37.4651 77.6641 37.4292 77.7 37.4292L78.4903 37.3213L77.8078 36.9618Z" fill="#14AD00"/>
<path d="M76.6223 11.1101C76.4786 10.8943 76.1194 10.355 75.7961 9.42017C74.2155 7.83815 71.3418 5.46512 67.8932 4.63815L67.2107 4.45837L67.6058 5.03366C67.7854 5.3213 72.0602 11.3617 76.299 11.3617C76.4068 11.3617 76.5505 11.3617 76.6583 11.3258C76.6583 11.2539 76.6223 11.182 76.6223 11.1101Z" fill="#007A18"/>
<path d="M75.9758 0.611236L75.6166 0L75.4729 0.719101C74.6826 4.99775 75.2214 7.80225 75.7962 9.42023C76.1195 10.3551 76.4787 10.8944 76.6224 11.1101L76.7661 11.0742L77.1253 11.0022C77.1253 11.0382 77.1612 11.1101 77.1612 11.1461C79.3884 6.61573 76.0836 0.862921 75.9758 0.611236Z" fill="#14AD00"/>
<path d="M77.1612 14.0584C75.5806 12.6921 70.4437 8.55729 65.8456 8.66516H65.2709L65.666 9.09662C65.8816 9.3483 70.9466 14.9932 76.5505 14.9932C76.8019 14.9932 77.0175 14.9573 77.2689 14.9573C77.233 14.6337 77.1971 14.3461 77.1612 14.0584Z" fill="#14AD00"/>
<path d="M62.2535 9.81567L61.4272 9.02466L61.8224 10.1033C61.8583 10.2112 65.235 19.2718 74.8622 19.2718C75.6525 19.2718 76.4787 19.1999 77.3408 19.0921C77.3408 18.8763 77.3768 18.6966 77.3768 18.4808C75.9399 17.9056 66.8874 14.2381 62.2535 9.81567Z" fill="#14AD00"/>
<path d="M58.0147 13.9505L57.2244 13.3033L57.5836 14.2382C57.6195 14.346 61.1758 23.155 71.1622 23.155C72.8506 23.155 74.6826 22.9033 76.7661 22.3281C76.802 22.1123 76.8739 21.9326 76.9098 21.7168C76.0477 21.8247 68.0729 22.1483 58.0147 13.9505Z" fill="#007A18"/>
<path d="M57.9068 23.4067L57.0088 23.2269L57.6554 23.8741C57.7272 23.946 61.6428 27.8292 67.8214 27.8292C70.1204 27.8292 72.7068 27.2899 75.5088 25.8516C75.6525 25.564 75.7962 25.2404 75.9399 24.9168C74.3952 24.9887 66.636 25.3483 57.9068 23.4067Z" fill="#14AD00"/>
<path d="M77.9156 16.6113C77.9156 16.4315 77.9156 16.2517 77.8797 16.036C77.8438 15.3888 77.7719 14.7056 77.7001 14.0225C77.6642 13.7708 77.6282 13.5191 77.5923 13.2674C77.5205 12.8719 77.4486 12.4764 77.3768 12.045C77.3409 11.8652 77.3049 11.6854 77.269 11.5056C77.2331 11.3618 77.1972 11.2539 77.1972 11.1101C77.1972 11.0742 77.1612 11.0023 77.1612 10.9663L76.802 11.0382L76.6583 11.0742C76.6583 11.1461 76.6943 11.218 76.6943 11.2899C76.9098 12.2247 77.0535 13.1236 77.1972 13.9865C77.2331 14.3101 77.269 14.5978 77.3049 14.8854C77.4127 16.1079 77.4486 17.2944 77.4127 18.409C77.4127 18.6247 77.3768 18.8045 77.3768 19.0202C77.3049 19.9551 77.1612 20.8539 76.9816 21.6809C76.9457 21.8966 76.8739 22.0764 76.8379 22.2922C76.6224 23.191 76.335 24.018 76.0117 24.809C75.868 25.1326 75.7243 25.4202 75.5807 25.7438C71.7729 33.5101 63.4748 35.9191 63.3671 35.9551L63.5108 36.4584C63.6185 36.4225 68.468 35.0202 72.5273 30.9214C72.6709 30.7775 72.7787 30.6697 72.9224 30.5259C73.5331 29.8787 74.1438 29.1236 74.6826 28.3326C74.8263 28.1169 74.97 27.9011 75.1137 27.6854C75.5807 26.9663 76.0117 26.1753 76.371 25.3483C76.4428 25.1326 76.5506 24.9528 76.6224 24.7371C76.9457 23.9101 77.2331 23.0113 77.4486 22.0405C77.4845 21.8607 77.5205 21.7169 77.5564 21.5371C77.7001 20.782 77.8078 19.991 77.8797 19.1641C77.8797 18.9843 77.9156 18.7686 77.9156 18.5888C77.9515 18.0135 77.9515 17.3304 77.9156 16.6113Z" fill="#007A18"/>
<path d="M73.0661 27.7933C72.9583 27.8293 63.9778 30.8855 60.2778 30.7057L59.0564 30.6338L60.1341 31.2091C60.17 31.245 62.3972 32.3596 65.235 32.3596C67.7496 32.3596 70.803 31.4967 73.3176 28.1888L73.8564 27.4697L73.0661 27.7933Z" fill="#007A18"/>
<path d="M48.7466 18.1213H47.1301V24.5213H48.7466V18.1213Z" fill="#C19E00"/>
<path d="M100.726 18.1213H99.1097V24.5213H100.726V18.1213Z" fill="#C19E00"/>
<path d="M13.7582 51.3798C13.7582 48.2158 11.4951 45.9866 8.26207 45.9866H0.0717773V63.6405H2.8378V56.809H7.61547L11.8543 63.6405H15.0155L10.4893 56.4135C12.5009 55.6225 13.7582 53.7529 13.7582 51.3798ZM8.1543 54.2562H2.80187V48.5394H8.1543C9.9145 48.5394 11.0281 49.654 11.0281 51.3798C11.0281 53.1416 9.9145 54.2562 8.1543 54.2562Z" fill="#303030"/>
<path d="M46.4834 50.5168C42.5678 50.5168 39.8737 53.2494 39.8737 57.1685C39.8737 61.0876 42.6038 63.8202 46.4834 63.8202C50.363 63.8202 53.0931 61.0876 53.0931 57.1685C53.0931 53.2494 50.3989 50.5168 46.4834 50.5168ZM46.4834 61.3034C44.1484 61.3034 42.6038 59.6494 42.6038 57.1685C42.6038 54.6876 44.1484 53.0337 46.4834 53.0337C48.8183 53.0337 50.363 54.6876 50.363 57.1685C50.363 59.6494 48.7824 61.3034 46.4834 61.3034Z" fill="#303030"/>
<path d="M61.7864 50.6606C60.1699 50.6606 58.733 51.164 57.6912 52.3505V50.6606H54.9971V63.6404H57.6912V57.7797C57.6912 55.0831 59.4155 53.1056 61.7864 53.1056H62.433V50.6606H61.7864Z" fill="#303030"/>
<path d="M84.3815 55.5505H77.4485V57.8157H84.3815V55.5505Z" fill="#303030"/>
<path d="M34.198 55.8382C32.6892 55.3348 31.7552 55.2989 31.6834 54.2202C31.6475 53.5011 32.5455 52.9977 33.7669 52.9977C34.8446 52.9977 35.7786 53.3213 36.3892 53.9685L36.6407 54.2202L38.329 52.5303L38.0776 52.2427C36.9999 51.1281 35.4912 50.5168 33.731 50.5168C30.929 50.5168 29.0252 52.027 29.0252 54.2921C29.0252 56.8449 31.5756 57.4921 33.4077 57.9955C34.162 58.2112 35.9582 58.8225 35.9582 59.973C35.9582 60.764 34.9523 61.3393 33.5514 61.3393C32.4019 61.3393 31.2883 60.9438 30.5698 60.3326L30.3543 60.1168L28.63 61.8427L28.9533 62.1303C30.1747 63.2449 31.7912 63.8562 33.5514 63.8562C36.5688 63.8562 38.5805 62.2741 38.5805 59.9371C38.6164 56.773 34.198 55.8382 34.198 55.8382Z" fill="#303030"/>
<path d="M71.7368 60.836C71.4135 61.1237 71.0184 61.2675 70.5155 61.2675C69.5096 61.2675 68.899 60.5843 68.899 59.5776V53.1057H73.2456V50.6967H68.899V48.5394V47.209V46.3821C68.899 46.3821 68.3601 47.281 66.2048 48.2877V50.6607H63.9058V53.0697H66.2048V59.6855C66.2048 62.0585 67.9291 63.7843 70.3359 63.7843C71.5572 63.7843 72.599 63.3169 73.3893 62.454L71.7368 60.836Z" fill="#303030"/>
<path d="M95.9844 50.6607C94.5835 50.6607 93.3262 51.0202 92.3563 51.9191V45.4113H89.6621V62.7416L90.0213 62.9214C91.2068 63.4607 92.7874 63.7843 94.2961 63.7843C98.6786 63.7843 101.732 60.9079 101.732 56.7731C101.768 53.1056 99.3971 50.6607 95.9844 50.6607ZM95.733 53.1416C98.1398 53.1416 99.0019 54.5798 99.0019 56.8809C99.0019 59.5056 97.2058 61.3034 94.5476 61.3034C93.865 61.3034 93.0388 61.1955 92.3563 60.9798V58.5708C92.3563 55.1191 93.5058 53.1416 95.733 53.1416Z" fill="#303030"/>
<path d="M124.399 60.836C124.076 61.1237 123.681 61.2675 123.178 61.2675C122.172 61.2675 121.561 60.5843 121.561 59.5776V53.1057H125.908V50.6967H121.561V48.5394V47.209V46.3821C121.561 46.3821 121.022 47.281 118.867 48.2877V50.6607H116.568V53.0697H118.867V59.6855C118.867 62.0585 120.591 63.7843 122.998 63.7843C124.219 63.7843 125.261 63.3169 126.051 62.454L124.399 60.836Z" fill="#303030"/>
<path d="M133.631 60.836C133.308 61.1237 132.913 61.2675 132.41 61.2675C131.404 61.2675 130.793 60.5843 130.793 59.5776V53.1057H135.14V50.6967H130.793V48.5394V47.209V46.3821C130.793 46.3821 130.254 47.281 128.099 48.2877V50.6607H125.8V53.0697H128.099V59.6855C128.099 62.0585 129.823 63.7843 132.23 63.7843C133.451 63.7843 134.493 63.3169 135.283 62.454L133.631 60.836Z" fill="#303030"/>
<path d="M142.432 50.5168C140.492 50.5168 138.373 51.2719 137.223 52.4225L137.116 52.5303L138.804 54.2202L138.84 54.1843C139.63 53.5011 141.067 52.9977 142.324 52.9977C144.013 52.9977 145.162 53.8607 145.162 55.1191V55.5146V55.5506C145.09 55.5506 145.054 55.5506 144.983 55.5146C144.372 55.4067 143.725 55.3348 143.15 55.3348C142.504 55.3348 141.857 55.4067 141.283 55.5146C140.025 55.7303 138.983 56.1977 138.193 56.8449C137.223 57.6359 136.684 58.6427 136.684 59.8652C136.684 61.0876 137.259 62.1303 138.193 62.8494C138.983 63.4607 140.061 63.7843 141.283 63.7843C142.791 63.7843 144.156 63.2449 145.198 62.2741V63.6045H147.856V55.5146V55.0831C147.82 52.4584 145.521 50.5168 142.432 50.5168ZM141.606 61.3393C140.277 61.3393 139.379 60.6921 139.379 59.7933C139.379 58.391 140.995 57.7079 143.222 57.7079C143.869 57.7079 144.551 57.7798 145.126 57.9236C144.911 59.9011 143.474 61.3393 141.606 61.3393Z" fill="#303030"/>
<path d="M113.515 59.973L113.263 60.2247C112.545 60.9438 111.467 61.3034 110.174 61.3034C107.947 61.3034 106.33 60.0809 106.007 58.2112C106.007 58.2112 112.688 59.0382 114.628 56.2337C116.748 53.1416 113.91 50.0494 109.491 50.5528C105.863 50.9483 103.205 53.2854 103.205 57.0607C103.205 61.0517 106.007 63.8562 110.03 63.8562C112.006 63.8562 113.802 63.173 114.987 61.9146L115.203 61.6989L113.515 59.973ZM110.282 52.818C111.862 52.818 112.976 53.3573 112.976 54.1843C112.976 55.4067 111.036 56.018 108.378 56.018C107.587 56.018 106.761 55.9461 106.079 55.8382C106.33 54.0764 108.054 52.818 110.282 52.818Z" fill="#303030"/>
<path d="M25.5407 59.973L25.2892 60.2247C24.5708 60.9438 23.4931 61.3034 22.1999 61.3034C19.9727 61.3034 18.3562 60.0809 18.0329 58.2112C18.0329 58.2112 24.7145 59.0382 26.6543 56.2337C28.7737 53.1416 25.9358 50.0494 21.5174 50.5528C17.8892 50.9483 15.231 53.2854 15.231 57.0607C15.231 61.0517 18.0329 63.8562 22.0562 63.8562C24.0319 63.8562 25.828 63.173 27.0135 61.9146L27.229 61.6989L25.5407 59.973ZM22.3077 52.818C23.8882 52.818 25.0018 53.3573 25.0018 54.1843C25.0018 55.4067 23.062 56.018 20.4038 56.018C19.6135 56.018 18.7873 55.9461 18.1047 55.8382C18.3203 54.0764 20.0445 52.818 22.3077 52.818Z" fill="#303030"/>
</g>
<defs>
<clipPath id="clip0_1_354">
<rect width="148" height="64" fill="white"/>
</clipPath>
</defs>
</svg>
