<svg width="22" height="22" viewBox="0 0 22 22" fill="none" xmlns="http://www.w3.org/2000/svg">
<g clip-path="url(#clip0_1_397)">
<path d="M21.0887 14.8599C20.4337 14.0742 19.6629 13.4037 18.9336 12.6917C18.2756 12.0499 18.2341 11.6776 18.763 10.9369C19.3403 10.1284 19.9611 9.35099 20.5436 8.54619C21.0874 7.79405 21.6432 7.04397 21.9293 6.14341C22.1108 5.57048 21.9503 5.31741 21.3628 5.21709C21.2616 5.19954 21.1569 5.19863 21.0539 5.19863L17.5681 5.19452C17.1388 5.18814 16.9015 5.37532 16.7497 5.75583C16.5447 6.27017 16.3334 6.78406 16.0892 7.28039C15.5352 8.40575 14.9164 9.49348 14.0489 10.4146C13.8576 10.6177 13.646 10.8744 13.3264 10.7686C12.9265 10.6227 12.8086 9.96382 12.8153 9.74108L12.8118 5.71776C12.7343 5.143 12.6069 4.88674 12.0362 4.77502L8.4153 4.77571C7.93197 4.77571 7.68961 4.96243 7.43153 5.26474C7.28265 5.43938 7.23774 5.55269 7.5437 5.6106C8.14468 5.7246 8.48324 6.11355 8.57307 6.71612C8.71716 7.67892 8.70713 8.64559 8.62414 9.61226C8.59974 9.89451 8.55118 10.1761 8.43924 10.4396C8.26414 10.8539 7.98144 10.9382 7.61005 10.6834C7.27376 10.4526 7.03757 10.1271 6.80639 9.80013C5.93798 8.57309 5.24512 7.24984 4.68016 5.85934C4.51692 5.45762 4.23536 5.21413 3.8097 5.20752C2.76392 5.19088 1.71791 5.18814 0.672121 5.20843C0.0428721 5.22029 -0.144763 5.52579 0.111497 6.09622C1.25053 8.62986 2.51837 11.093 4.17334 13.3369C5.02306 14.4885 5.99862 15.5051 7.25894 16.2255C8.68729 17.0422 10.2248 17.288 11.8443 17.2123C12.6025 17.1767 12.8303 16.9795 12.8654 16.2237C12.8891 15.7066 12.9477 15.1925 13.2028 14.7279C13.4532 14.2719 13.8323 14.185 14.2694 14.4687C14.488 14.6107 14.6722 14.7915 14.8462 14.9821C15.273 15.449 15.6845 15.9301 16.1275 16.3812C16.6831 16.9467 17.3413 17.2807 18.1689 17.2125L21.3726 17.2132C21.8888 17.1794 22.1564 16.5465 21.86 15.9704C21.6519 15.5669 21.3787 15.2076 21.0887 14.8599Z" fill="#312C3A"/>
</g>
<defs>
<clipPath id="clip0_1_397">
<rect width="22" height="22" fill="white"/>
</clipPath>
</defs>
</svg>
